<?xml version="1.0" encoding="UTF-8"?>
<svg id="Layer_1" xmlns="http://www.w3.org/2000/svg" version="1.1" viewBox="0 0 100 100">
  <!-- Generator: Adobe Illustrator 29.8.10, SVG Export Plug-In . SVG Version: 2.1.1 Build 2)  -->
  <defs>
    <style>
      .st0 {
        fill: #341208;
      }

      .st1 {
        fill: #93f200;
      }

      .st2 {
        fill: #ffde88;
      }

      .st3 {
        fill: #f60000;
      }
    </style>
  </defs>
  <path class="st3" d="M14.24,41.5l-.43,13.3.42,8.07,11.91,15.09,9.36,7.46,14.78-2.37,13.53,2.37,16.51-17.15,7.01-21.94-8.47-20.39-18.96-6.44-12.1,4.89-10.02,7.91h-10.07l-13.49,9.19Z"/>
  <path class="st0" d="M39.93,24.17l2.11-1.15,3.06,5.63-2.11,1.15-2.94-3.96-.12-1.67Z"/>
  <path class="st1" d="M52.56,29.85l-5.95-6.16.83.04,1.06-1.02,6.23-3.85,12.03,3.85,5.88,3.85,4.27,1.26-7.56,4.97h-10.91l-5.88-2.94Z"/>
  <path class="st2" d="M44.56,53.7l-9.47,3.7-9.14-4.65-1.17-6.64,3.87-8.83h11.31l5.62,5.55-1.02,10.87Z"/>
</svg>